<?xml version="1.0" encoding="UTF-8" standalone="no"?>
<svg xmlns:dc="http://purl.org/dc/elements/1.1/" xmlns:cc="http://creativecommons.org/ns#" xmlns:rdf="http://www.w3.org/1999/02/22-rdf-syntax-ns#" xmlns:svg="http://www.w3.org/2000/svg" xmlns="http://www.w3.org/2000/svg" xmlns:sodipodi="http://sodipodi.sourceforge.net/DTD/sodipodi-0.dtd" xmlns:inkscape="http://www.inkscape.org/namespaces/inkscape" version="1.1" id="svg2" xml:space="preserve" width="1037.64" height="213.85333" viewBox="0 0 1037.64 213.85333" sodipodi:docname="estu_logo_vektorel2.eps"><metadata id="metadata8"><rdf:RDF><cc:Work rdf:about=""><dc:format>image/svg+xml</dc:format><dc:type rdf:resource="http://purl.org/dc/dcmitype/StillImage"/></cc:Work></rdf:RDF></metadata><defs id="defs6"/><sodipodi:namedview pagecolor="#ffffff" bordercolor="#666666" borderopacity="1" objecttolerance="10" gridtolerance="10" guidetolerance="10" inkscape:pageopacity="0" inkscape:pageshadow="2" inkscape:window-width="640" inkscape:window-height="480" id="namedview4"/><g id="g10" inkscape:groupmode="layer" inkscape:label="ink_ext_XXXXXX" transform="matrix(1.3333333,0,0,-1.3333333,0,213.85333)"><g id="g12" transform="scale(0.1)"><path d="m 962.363,1443.55 -160.386,160.38 -160.403,-160.38 160.403,-160.4 160.386,160.4" style="fill:#8e1916;fill-opacity:1;fill-rule:nonzero;stroke:none" id="path14"/><path d="m 1443.54,962.375 -160.4,-160.398 160.4,-160.379 160.4,160.379 -160.4,160.398" style="fill:#8e1916;fill-opacity:1;fill-rule:nonzero;stroke:none" id="path16"/><path d="M 962.363,481.199 801.977,320.801 641.574,481.199 481.176,320.801 641.574,160.398 801.977,0 962.34,160.398 l 160.4,160.403 160.4,160.398 -160.38,160.379 -160.397,-160.379" style="fill:#8e1916;fill-opacity:1;fill-rule:nonzero;stroke:none" id="path18"/><path d="m 962.363,801.977 160.397,160.378 160.4,160.395 -160.4,160.4 L 962.363,1122.75 801.977,962.355 641.574,801.977 481.176,641.578 641.574,481.199 801.977,641.578 962.363,801.977" style="fill:#8e1916;fill-opacity:1;fill-rule:nonzero;stroke:none" id="path20"/><path d="M 481.176,962.355 641.574,1122.75 481.199,1283.15 320.801,1122.75 160.398,962.355 0,801.977 160.398,641.578 320.801,481.199 481.176,641.578 320.801,801.977 481.176,962.355" style="fill:#8e1916;fill-opacity:1;fill-rule:nonzero;stroke:none" id="path22"/><path d="m 2118.52,1138.32 v -33.96 c 0,-12.07 -4.15,-16.23 -16.22,-16.23 h -99.62 v -33.58 h 79.62 c 12.07,0 16.22,-4.16 16.22,-15.85 v -33.97 c 0,-12.07 -4.15,-16.218 -16.22,-16.218 h -79.62 v -36.223 h 103.02 c 11.69,0 15.84,-3.769 15.84,-15.859 v -34.336 c 0,-11.699 -4.15,-15.84 -15.84,-15.84 h -161.51 c -12.08,0 -16.23,4.141 -16.23,15.84 v 236.226 c 0,11.7 4.15,15.84 16.23,15.84 h 158.11 c 12.07,0 16.22,-4.14 16.22,-15.84" style="fill:#4f4c4c;fill-opacity:1;fill-rule:nonzero;stroke:none" id="path24"/><path d="m 2253.62,1159.83 c 55.85,0 87.55,-16.6 105.28,-52.83 5.29,-10.94 2.27,-16.61 -9.05,-21.14 l -37.74,-16.22 c -10.19,-4.53 -14.34,-3.01 -20.37,7.92 -7.18,14.34 -20.76,19.63 -38.12,19.63 -25.66,0 -35.84,-6.42 -35.84,-19.63 0,-16.23 22.26,-19.61 49.43,-23.01 43.77,-6.04 100.37,-16.6 100.37,-87.925 0,-55.469 -50.19,-86.035 -116.98,-86.035 -56.22,0 -95.47,19.238 -109.81,58.496 -4.15,11.309 -0.75,16.602 10.19,20.742 l 35.47,12.832 c 11.33,3.77 16.61,2.637 22.27,-8.301 6.79,-13.203 21.51,-20 42.64,-20 25.28,0 40.38,5.293 40.38,21.504 0,14.727 -19.25,18.867 -44.16,22.266 -44.15,6.035 -106.03,13.961 -106.03,87.171 0,49.81 40,84.53 112.07,84.53" style="fill:#4f4c4c;fill-opacity:1;fill-rule:nonzero;stroke:none" id="path26"/><path d="m 2608.34,886.254 h -40.76 c -20,0 -27.17,2.637 -33.58,15.84 l -32.83,67.558 c -6.04,12.071 -11.32,18.86 -25.66,18.86 h -6.79 v -86.418 c 0,-11.699 -3.78,-15.84 -15.85,-15.84 h -42.64 c -12.08,0 -16.23,4.141 -16.23,15.84 v 236.226 c 0,11.7 4.15,15.84 16.23,15.84 h 42.64 c 12.07,0 15.85,-4.14 15.85,-15.84 v -83.77 h 8.3 l 54.33,85.65 c 7.18,11.7 10.57,13.96 30.19,13.96 h 43.4 c 11.32,0 15.1,-6.78 9.06,-16.6 l -68.68,-109.43 c 9.43,-6.79 16.6,-16.22 23.02,-29.052 l 49.81,-94.348 c 5.28,-10.175 2.64,-18.476 -9.81,-18.476" style="fill:#4f4c4c;fill-opacity:1;fill-rule:nonzero;stroke:none" id="path28"/><path d="m 2707.97,1203.23 v -3.03 c 0,-21.88 -6.04,-28.3 -27.93,-28.3 h -2.27 c -22.26,0 -28.67,6.42 -28.67,28.3 v 3.03 c 0,21.88 6.41,28.3 28.67,28.3 h 2.27 c 21.89,0 27.93,-6.42 27.93,-28.3 z m -51.7,-49.07 h 44.53 c 11.32,0 15.09,-3.77 15.09,-15.09 V 901.352 c 0,-11.329 -3.77,-15.098 -15.09,-15.098 h -44.53 c -11.32,0 -15.1,3.769 -15.1,15.098 v 237.718 c 0,11.32 3.78,15.09 15.1,15.09" style="fill:#4f4c4c;fill-opacity:1;fill-rule:nonzero;stroke:none" id="path30"/><path d="m 2971.73,966.625 c 0,-48.301 -37.73,-77.734 -92.07,-84.531 l -5.28,-13.203 h 3.78 c 21.12,-0.371 33.2,-16.973 30.94,-37.364 -3.4,-29.804 -30.19,-37.734 -56.61,-37.734 -9.05,0 -18.87,0.762 -28.3,4.16 -7.92,3.008 -9.81,6.035 -9.81,11.699 l -0.37,15.84 c 0,7.168 3.39,10.567 12.07,6.035 6.42,-3.398 11.7,-5.644 20.75,-5.644 9.44,0 12.83,3.769 12.83,8.672 0,5.664 -3.39,7.929 -15.84,8.3 h -7.55 c -7.17,0 -8.68,3.399 -5.29,11.329 l 12.08,26.777 c -50.19,2.266 -84.9,21.894 -98.11,58.125 -4.15,11.309 -1.13,16.602 9.81,20.742 l 35.85,12.832 c 11.32,3.77 16.22,2.637 22.26,-8.301 6.42,-13.203 21.14,-20 42.26,-20 25.67,0 40.76,5.293 40.76,21.504 0,14.727 -19.62,18.867 -44.15,22.266 -44.15,6.035 -106.04,13.961 -106.04,87.171 0,49.81 40,84.53 111.7,84.53 55.85,0 87.54,-16.6 105.66,-52.83 5.28,-10.94 2.26,-16.61 -9.06,-21.14 l -37.73,-16.22 c -10.57,-4.53 -14.72,-3.01 -20.38,7.92 -7.55,14.34 -21.13,19.63 -38.49,19.63 -25.28,0 -35.47,-6.42 -35.47,-19.63 0,-16.23 22.26,-19.61 49.43,-23.01 43.4,-6.04 100.37,-16.6 100.37,-87.925" style="fill:#4f4c4c;fill-opacity:1;fill-rule:nonzero;stroke:none" id="path32"/><path d="m 3188.34,1138.32 v -33.96 c 0,-12.07 -4.15,-16.23 -16.22,-16.23 h -99.62 v -33.58 h 79.62 c 12.07,0 16.22,-4.16 16.22,-15.85 v -33.97 c 0,-12.07 -4.15,-16.218 -16.22,-16.218 h -79.62 v -36.223 h 103.01 c 11.7,0 15.85,-3.769 15.85,-15.859 v -34.336 c 0,-11.699 -4.15,-15.84 -15.85,-15.84 h -161.5 c -12.08,0 -16.23,4.141 -16.23,15.84 v 236.226 c 0,11.7 4.15,15.84 16.23,15.84 h 158.11 c 12.07,0 16.22,-4.14 16.22,-15.84" style="fill:#4f4c4c;fill-opacity:1;fill-rule:nonzero;stroke:none" id="path34"/><path d="M 3442.31,1138.32 V 902.094 c 0,-11.699 -4.15,-15.84 -15.85,-15.84 h -43.02 c -11.7,0 -15.85,4.141 -15.85,15.84 v 86.797 h -73.2 v -86.797 c 0,-11.699 -3.78,-15.84 -15.85,-15.84 h -42.64 c -12.08,0 -16.23,4.141 -16.23,15.84 v 236.226 c 0,12.07 4.15,16.23 16.23,16.23 h 42.64 c 12.07,0 15.85,-4.16 15.85,-16.23 v -83.39 h 73.2 v 83.39 c 0,12.07 4.15,16.23 15.85,16.23 h 43.02 c 11.7,0 15.85,-4.16 15.85,-16.23" style="fill:#4f4c4c;fill-opacity:1;fill-rule:nonzero;stroke:none" id="path36"/><path d="m 3546.84,1203.23 v -3.03 c 0,-21.88 -6.04,-28.3 -27.93,-28.3 h -2.26 c -22.26,0 -28.68,6.42 -28.68,28.3 v 3.03 c 0,21.88 6.42,28.3 28.68,28.3 h 2.26 c 21.89,0 27.93,-6.42 27.93,-28.3 z m -51.7,-49.07 h 44.52 c 11.33,0 15.1,-3.77 15.1,-15.09 V 901.352 c 0,-11.329 -3.77,-15.098 -15.1,-15.098 h -44.52 c -11.32,0 -15.09,3.769 -15.09,15.098 v 237.718 c 0,11.32 3.77,15.09 15.09,15.09" style="fill:#4f4c4c;fill-opacity:1;fill-rule:nonzero;stroke:none" id="path38"/><path d="m 3708.35,1088.13 h -40.76 v -49.81 h 40.76 c 15.85,0 24.9,9.81 24.9,25.28 0,15.1 -8.68,24.53 -24.9,24.53 z m 102.26,-24.9 c 0,-36.98 -15.1,-63.402 -40.75,-77.738 3.77,-4.902 7.16,-10.195 10.19,-16.23 l 33.96,-64.532 c 5.28,-10.175 2.64,-18.476 -9.81,-18.476 h -40.76 c -20,0 -28.68,4.902 -34.72,18.105 l -24.15,51.7 c -6.41,12.832 -12.83,19.238 -28.3,19.238 h -8.68 v -73.203 c 0,-11.699 -3.77,-15.84 -15.85,-15.84 h -42.64 c -12.07,0 -16.22,4.141 -16.22,15.84 v 236.226 c 0,11.7 4.15,15.84 16.22,15.84 h 107.55 c 56.98,0 93.96,-32.44 93.96,-90.93" style="fill:#4f4c4c;fill-opacity:1;fill-rule:nonzero;stroke:none" id="path40"/><path d="m 4106.08,1138.32 v -33.96 c 0,-12.07 -4.15,-16.23 -16.22,-16.23 h -55.85 V 902.094 c 0,-11.699 -4.15,-15.84 -16.23,-15.84 h -42.64 c -12.07,0 -15.85,4.141 -15.85,15.84 v 186.036 h -56.22 c -12.08,0 -15.85,4.16 -15.85,16.23 v 33.96 c 0,11.7 3.77,15.84 15.85,15.84 h 186.79 c 12.07,0 16.22,-4.14 16.22,-15.84" style="fill:#4f4c4c;fill-opacity:1;fill-rule:nonzero;stroke:none" id="path42"/><path d="m 4319.67,1138.32 v -33.96 c 0,-12.07 -4.15,-16.23 -16.23,-16.23 h -99.62 v -33.58 h 79.62 c 12.08,0 16.23,-4.16 16.23,-15.85 v -33.97 c 0,-12.07 -4.15,-16.218 -16.23,-16.218 h -79.62 v -36.223 h 103.02 c 11.7,0 15.85,-3.769 15.85,-15.859 v -34.336 c 0,-11.699 -4.15,-15.84 -15.85,-15.84 h -161.51 c -12.07,0 -16.22,4.141 -16.22,15.84 v 236.226 c 0,11.7 4.15,15.84 16.22,15.84 h 158.11 c 12.08,0 16.23,-4.14 16.23,-15.84" style="fill:#4f4c4c;fill-opacity:1;fill-rule:nonzero;stroke:none" id="path44"/><path d="m 4565.33,886.254 h -40.75 c -20,0 -27.17,2.637 -33.59,15.84 l -32.82,67.558 c -6.04,12.071 -11.33,18.86 -25.66,18.86 h -6.8 v -86.418 c 0,-11.699 -3.77,-15.84 -15.85,-15.84 h -42.64 c -12.07,0 -16.22,4.141 -16.22,15.84 v 236.226 c 0,11.7 4.15,15.84 16.22,15.84 h 42.64 c 12.08,0 15.85,-4.14 15.85,-15.84 v -83.77 h 8.31 l 54.33,85.65 c 7.17,11.7 10.57,13.96 30.19,13.96 h 43.4 c 11.32,0 15.09,-6.78 9.05,-16.6 l -68.67,-109.43 c 9.43,-6.79 16.6,-16.22 23.01,-29.052 l 49.81,-94.348 c 5.29,-10.175 2.64,-18.476 -9.81,-18.476" style="fill:#4f4c4c;fill-opacity:1;fill-rule:nonzero;stroke:none" id="path46"/><path d="M 4824.58,1138.32 V 902.094 c 0,-11.699 -4.15,-15.84 -15.85,-15.84 h -42.64 c -7.92,0 -12.07,2.266 -15.47,7.539 l -58.11,89.434 c -16.61,26.033 -23.02,43.773 -33.21,77.733 h -3.02 c 7.93,-36.23 12.46,-55.47 12.46,-97.362 v -61.504 c 0,-11.699 -4.15,-15.84 -16.23,-15.84 h -38.11 c -12.08,0 -16.23,4.141 -16.23,15.84 v 236.226 c 0,11.7 4.15,15.84 16.23,15.84 h 44.52 c 8.68,0 12.46,-2.26 15.85,-7.53 l 61.89,-96.61 c 16.6,-26.03 19.62,-40.38 31.7,-69.059 h 3.01 c -12.07,38.869 -16.98,56.989 -16.98,95.469 v 61.89 c 0,11.7 3.78,15.84 15.85,15.84 h 38.49 c 11.7,0 15.85,-4.14 15.85,-15.84" style="fill:#4f4c4c;fill-opacity:1;fill-rule:nonzero;stroke:none" id="path48"/><path d="m 4929.12,1203.23 v -3.03 c 0,-21.88 -6.04,-28.3 -27.93,-28.3 h -2.26 c -22.26,0 -28.68,6.42 -28.68,28.3 v 3.03 c 0,21.88 6.42,28.3 28.68,28.3 h 2.26 c 21.89,0 27.93,-6.42 27.93,-28.3 z m -51.7,-49.07 h 44.53 c 11.32,0 15.09,-3.77 15.09,-15.09 V 901.352 c 0,-11.329 -3.77,-15.098 -15.09,-15.098 h -44.53 c -11.32,0 -15.09,3.769 -15.09,15.098 v 237.718 c 0,11.32 3.77,15.09 15.09,15.09" style="fill:#4f4c4c;fill-opacity:1;fill-rule:nonzero;stroke:none" id="path50"/><path d="m 5189.49,886.254 h -40.75 c -20,0 -27.17,2.637 -33.59,15.84 l -32.82,67.558 c -6.04,12.071 -11.33,18.86 -25.66,18.86 h -6.8 v -86.418 c 0,-11.699 -3.77,-15.84 -15.85,-15.84 h -42.64 c -12.07,0 -16.22,4.141 -16.22,15.84 v 236.226 c 0,11.7 4.15,15.84 16.22,15.84 h 42.64 c 12.08,0 15.85,-4.14 15.85,-15.84 v -83.77 h 8.31 l 54.33,85.65 c 7.17,11.7 10.57,13.96 30.19,13.96 h 43.4 c 11.32,0 15.09,-6.78 9.05,-16.6 l -68.67,-109.43 c 9.43,-6.79 16.6,-16.22 23.01,-29.052 l 49.81,-94.348 c 5.29,-10.175 2.65,-18.476 -9.81,-18.476" style="fill:#4f4c4c;fill-opacity:1;fill-rule:nonzero;stroke:none" id="path52"/><path d="m 5471.38,1204.36 v -4.91 c 0,-19.99 -6.42,-26.79 -27.55,-26.79 h -2.64 c -20.75,0 -27.55,6.8 -27.55,26.79 v 4.91 c 0,20.37 6.8,26.79 27.55,26.79 h 2.64 c 21.13,0 27.55,-6.42 27.55,-26.79 z m -80.75,0 v -4.91 c 0,-19.99 -6.8,-26.79 -27.93,-26.79 h -2.64 c -21.13,0 -27.17,6.8 -27.17,26.79 v 4.91 c 0,20.37 6.04,26.79 27.17,26.79 h 2.64 c 21.13,0 27.93,-6.42 27.93,-26.79 z m 11.32,-257.735 c 26.04,0 39.24,12.461 39.24,34.719 v 156.976 c 0,11.7 3.77,15.84 15.85,15.84 h 42.64 c 12.07,0 16.23,-4.14 16.23,-15.84 V 984.73 c 0,-63.378 -39.25,-104.14 -113.96,-104.14 -74.34,0 -113.58,40.762 -113.58,104.14 v 153.59 c 0,11.7 3.77,15.84 15.84,15.84 h 42.64 c 12.08,0 16.23,-4.14 16.23,-15.84 V 981.344 c 0,-22.258 12.83,-34.719 38.87,-34.719" style="fill:#4f4c4c;fill-opacity:1;fill-rule:nonzero;stroke:none" id="path54"/><path d="M 5777.79,1138.32 V 902.094 c 0,-11.699 -4.15,-15.84 -15.84,-15.84 h -42.65 c -7.92,0 -12.07,2.266 -15.47,7.539 l -58.11,89.434 c -16.6,26.033 -23.02,43.773 -33.2,77.733 h -3.03 c 7.93,-36.23 12.46,-55.47 12.46,-97.362 v -61.504 c 0,-11.699 -4.15,-15.84 -16.23,-15.84 h -38.11 c -12.08,0 -16.23,4.141 -16.23,15.84 v 236.226 c 0,11.7 4.15,15.84 16.23,15.84 h 44.53 c 8.68,0 12.45,-2.26 15.85,-7.53 l 61.88,-96.61 c 16.61,-26.03 19.62,-40.38 31.7,-69.059 h 3.02 c -12.08,38.869 -16.99,56.989 -16.99,95.469 v 61.89 c 0,11.7 3.78,15.84 15.85,15.84 h 38.5 c 11.69,0 15.84,-4.14 15.84,-15.84" style="fill:#4f4c4c;fill-opacity:1;fill-rule:nonzero;stroke:none" id="path56"/><path d="m 5882.33,1203.23 v -3.03 c 0,-21.88 -6.04,-28.3 -27.92,-28.3 h -2.27 c -22.26,0 -28.68,6.42 -28.68,28.3 v 3.03 c 0,21.88 6.42,28.3 28.68,28.3 h 2.27 c 21.88,0 27.92,-6.42 27.92,-28.3 z m -51.7,-49.07 h 44.53 c 11.32,0 15.1,-3.77 15.1,-15.09 V 901.352 c 0,-11.329 -3.78,-15.098 -15.1,-15.098 h -44.53 c -11.32,0 -15.09,3.769 -15.09,15.098 v 237.718 c 0,11.32 3.77,15.09 15.09,15.09" style="fill:#4f4c4c;fill-opacity:1;fill-rule:nonzero;stroke:none" id="path58"/><path d="m 6164.97,1138.7 -83.4,-239.243 c -3.77,-10.937 -8.67,-13.203 -19.62,-13.203 h -47.17 c -10.94,0 -16.22,2.637 -19.62,12.441 l -83.77,240.005 c -3.77,10.19 -0.38,15.46 10.95,15.46 h 43.01 c 19.25,0 25.28,-4.14 28.3,-15.84 l 35.85,-129.06 c 6.04,-22.264 8.3,-48.67 8.3,-48.67 h 3.4 c 0,0 1.51,26.035 7.92,48.3 l 35.85,129.43 c 3.02,11.7 8.68,15.84 27.17,15.84 h 42.64 c 11.32,0 13.96,-5.27 10.19,-15.46" style="fill:#4f4c4c;fill-opacity:1;fill-rule:nonzero;stroke:none" id="path60"/><path d="m 6376.29,1138.32 v -33.96 c 0,-12.07 -4.15,-16.23 -16.22,-16.23 h -99.62 v -33.58 h 79.62 c 12.07,0 16.22,-4.16 16.22,-15.85 v -33.97 c 0,-12.07 -4.15,-16.218 -16.22,-16.218 h -79.62 v -36.223 h 103.01 c 11.7,0 15.85,-3.769 15.85,-15.859 v -34.336 c 0,-11.699 -4.15,-15.84 -15.85,-15.84 h -161.51 c -12.07,0 -16.22,4.141 -16.22,15.84 v 236.226 c 0,11.7 4.15,15.84 16.22,15.84 h 158.12 c 12.07,0 16.22,-4.14 16.22,-15.84" style="fill:#4f4c4c;fill-opacity:1;fill-rule:nonzero;stroke:none" id="path62"/><path d="m 6523.09,1088.13 h -40.75 v -49.81 h 40.75 c 15.85,0 24.9,9.81 24.9,25.28 0,15.1 -8.68,24.53 -24.9,24.53 z m 102.26,-24.9 c 0,-36.98 -15.09,-63.402 -40.75,-77.738 3.77,-4.902 7.16,-10.195 10.19,-16.23 l 33.96,-64.532 c 5.28,-10.175 2.64,-18.476 -9.81,-18.476 h -40.76 c -20,0 -28.68,4.902 -34.72,18.105 l -24.15,51.7 c -6.41,12.832 -12.82,19.238 -28.3,19.238 h -8.67 v -73.203 c 0,-11.699 -3.78,-15.84 -15.85,-15.84 h -42.65 c -12.07,0 -16.22,4.141 -16.22,15.84 v 236.226 c 0,11.7 4.15,15.84 16.22,15.84 h 107.55 c 56.98,0 93.96,-32.44 93.96,-90.93" style="fill:#4f4c4c;fill-opacity:1;fill-rule:nonzero;stroke:none" id="path64"/><path d="m 6760.83,1159.83 c 55.85,0 87.55,-16.6 105.28,-52.83 5.28,-10.94 2.27,-16.61 -9.06,-21.14 l -37.73,-16.22 c -10.19,-4.53 -14.34,-3.01 -20.38,7.92 -7.17,14.34 -20.75,19.63 -38.11,19.63 -25.66,0 -35.85,-6.42 -35.85,-19.63 0,-16.23 22.26,-19.61 49.44,-23.01 43.77,-6.04 100.37,-16.6 100.37,-87.925 0,-55.469 -50.19,-86.035 -116.98,-86.035 -56.23,0 -95.47,19.238 -109.81,58.496 -4.15,11.309 -0.75,16.602 10.19,20.742 l 35.47,12.832 c 11.32,3.77 16.61,2.637 22.26,-8.301 6.8,-13.203 21.51,-20 42.65,-20 25.28,0 40.37,5.293 40.37,21.504 0,14.727 -19.25,18.867 -44.15,22.266 -44.15,6.035 -106.03,13.961 -106.03,87.171 0,49.81 40,84.53 112.07,84.53" style="fill:#4f4c4c;fill-opacity:1;fill-rule:nonzero;stroke:none" id="path66"/><path d="m 6968,1203.23 v -3.03 c 0,-21.88 -6.04,-28.3 -27.92,-28.3 h -2.27 c -22.26,0 -28.68,6.42 -28.68,28.3 v 3.03 c 0,21.88 6.42,28.3 28.68,28.3 h 2.27 c 21.88,0 27.92,-6.42 27.92,-28.3 z m -51.7,-49.07 h 44.53 c 11.32,0 15.09,-3.77 15.09,-15.09 V 901.352 c 0,-11.329 -3.77,-15.098 -15.09,-15.098 h -44.53 c -11.32,0 -15.09,3.769 -15.09,15.098 v 237.718 c 0,11.32 3.77,15.09 15.09,15.09" style="fill:#4f4c4c;fill-opacity:1;fill-rule:nonzero;stroke:none" id="path68"/><path d="m 7218.56,1138.32 v -33.96 c 0,-12.07 -4.15,-16.23 -16.23,-16.23 h -55.84 V 902.094 c 0,-11.699 -4.15,-15.84 -16.23,-15.84 h -42.64 c -12.08,0 -15.85,4.141 -15.85,15.84 v 186.036 h -56.23 c -12.07,0 -15.85,4.16 -15.85,16.23 v 33.96 c 0,11.7 3.78,15.84 15.85,15.84 h 186.79 c 12.08,0 16.23,-4.14 16.23,-15.84" style="fill:#4f4c4c;fill-opacity:1;fill-rule:nonzero;stroke:none" id="path70"/><path d="m 7432.15,1138.32 v -33.96 c 0,-12.07 -4.16,-16.23 -16.23,-16.23 h -99.62 v -33.58 h 79.62 c 12.07,0 16.23,-4.16 16.23,-15.85 v -33.97 c 0,-12.07 -4.16,-16.218 -16.23,-16.218 h -79.62 v -36.223 h 103.02 c 11.69,0 15.84,-3.769 15.84,-15.859 v -34.336 c 0,-11.699 -4.15,-15.84 -15.84,-15.84 h -161.51 c -12.08,0 -16.23,4.141 -16.23,15.84 v 236.226 c 0,11.7 4.15,15.84 16.23,15.84 h 158.11 c 12.07,0 16.23,-4.14 16.23,-15.84" style="fill:#4f4c4c;fill-opacity:1;fill-rule:nonzero;stroke:none" id="path72"/><path d="m 7567.24,1159.83 c 55.85,0 87.55,-16.6 105.29,-52.83 5.28,-10.94 2.26,-16.61 -9.06,-21.14 l -37.74,-16.22 c -10.19,-4.53 -14.34,-3.01 -20.37,7.92 -7.17,14.34 -20.76,19.63 -38.12,19.63 -25.66,0 -35.84,-6.42 -35.84,-19.63 0,-16.23 22.26,-19.61 49.43,-23.01 43.77,-6.04 100.37,-16.6 100.37,-87.925 0,-55.469 -50.18,-86.035 -116.97,-86.035 -56.23,0 -95.47,19.238 -109.81,58.496 -4.15,11.309 -0.76,16.602 10.19,20.742 l 35.47,12.832 c 11.32,3.77 16.6,2.637 22.26,-8.301 6.79,-13.203 21.51,-20 42.64,-20 25.29,0 40.38,5.293 40.38,21.504 0,14.727 -19.25,18.867 -44.15,22.266 -44.15,6.035 -106.04,13.961 -106.04,87.171 0,49.81 40,84.53 112.07,84.53" style="fill:#4f4c4c;fill-opacity:1;fill-rule:nonzero;stroke:none" id="path74"/><path d="m 7774.42,1203.23 v -3.03 c 0,-21.88 -6.04,-28.3 -27.93,-28.3 h -2.26 c -22.27,0 -28.68,6.42 -28.68,28.3 v 3.03 c 0,21.88 6.41,28.3 28.68,28.3 h 2.26 c 21.89,0 27.93,-6.42 27.93,-28.3 z m -51.7,-49.07 h 44.52 c 11.33,0 15.1,-3.77 15.1,-15.09 V 901.352 c 0,-11.329 -3.77,-15.098 -15.1,-15.098 h -44.52 c -11.32,0 -15.1,3.769 -15.1,15.098 v 237.718 c 0,11.32 3.78,15.09 15.1,15.09" style="fill:#4f4c4c;fill-opacity:1;fill-rule:nonzero;stroke:none" id="path76"/><path d="m 2059.53,697.895 v -5.704 c 0,-2.851 -0.95,-3.808 -4.12,-3.808 h -118.85 v -90.645 h 105.22 c 2.86,0 3.81,-0.957 3.81,-3.808 v -5.7 c 0,-3.171 -0.95,-4.121 -3.81,-4.121 h -105.22 v -93.5 h 123.29 c 2.85,0 4.12,-0.937 4.12,-3.789 v -5.699 c 0,-3.191 -1.27,-4.121 -4.12,-4.121 h -133.74 c -3.17,0 -4.13,0.93 -4.13,4.121 v 216.774 c 0,3.164 0.96,4.121 4.13,4.121 h 129.3 c 3.17,0 4.12,-0.957 4.12,-4.121" style="fill:#4f4c4c;fill-opacity:1;fill-rule:nonzero;stroke:none" id="path78"/><path d="m 2173.9,706.449 c 42.47,0 66.56,-15.527 83.04,-49.121 1.58,-2.851 0.63,-4.453 -1.9,-5.39 l -6.34,-2.852 c -2.54,-0.957 -3.49,-0.957 -5.07,1.894 -14.26,28.204 -34.23,41.524 -69.73,41.524 -40.88,0 -64.65,-17.754 -64.65,-48.184 0,-37.382 35.18,-43.422 70.99,-47.211 38.67,-4.449 78.92,-11.089 78.92,-59.898 0,-41.211 -28.53,-64.652 -83.67,-64.652 -44.37,0 -70.04,17.742 -85.25,55.453 -1.27,3.168 -0.96,4.437 2.21,5.707 l 6.03,2.222 c 2.85,0.957 3.8,0.629 5.38,-2.543 13.63,-32.007 36.13,-46.886 71.63,-46.886 45.63,0 69.09,16.457 69.09,50.058 0,37.399 -32.96,42.149 -67.51,46.27 -39.61,4.762 -82.71,11.422 -82.71,60.543 0,38.652 29.47,63.066 79.54,63.066" style="fill:#4f4c4c;fill-opacity:1;fill-rule:nonzero;stroke:none" id="path80"/><path d="m 2454.98,477 h -6.34 c -5.07,0 -6.34,0.621 -7.92,3.469 l -37.08,73.851 c -10.46,20.918 -22.51,30.121 -49.13,30.121 h -40.25 v -103.32 c 0,-3.191 -0.95,-4.121 -3.8,-4.121 h -6.65 c -3.17,0 -4.13,0.93 -4.13,4.121 v 216.774 c 0,3.164 0.96,4.121 4.13,4.121 h 6.65 c 2.85,0 3.8,-0.957 3.8,-4.121 V 597.738 h 39.3 c 2.86,0 5.71,0 7.93,-0.308 l 74.79,101.09 c 2.22,2.851 3.49,3.496 8.24,3.496 h 7.29 c 3.17,0 3.48,-1.914 1.9,-4.121 L 2376.7,594.891 c 19.33,-4.442 30.74,-15.84 40.57,-34.871 l 39.93,-78.899 c 1.26,-2.23 0.95,-4.121 -2.22,-4.121" style="fill:#4f4c4c;fill-opacity:1;fill-rule:nonzero;stroke:none" id="path82"/><path d="m 2493.92,702.016 h 6.65 c 2.85,0 3.81,-0.957 3.81,-4.121 V 481.121 c 0,-3.191 -0.96,-4.121 -3.81,-4.121 h -6.65 c -3.17,0 -4.12,0.93 -4.12,4.121 v 216.774 c 0,3.164 0.95,4.121 4.12,4.121 z m 11.41,36.445 v -1.582 c 0,-5.723 -1.91,-7.305 -7.61,-7.305 h -1.27 c -6.02,0 -7.6,1.27 -7.6,7.305 v 1.582 c 0,6.016 1.58,7.598 7.6,7.598 h 1.27 c 5.7,0 7.61,-1.582 7.61,-7.598" style="fill:#4f4c4c;fill-opacity:1;fill-rule:nonzero;stroke:none" id="path84"/><path d="m 2712.9,537.211 c 0,-39.941 -26.3,-62.75 -77.33,-64.652 l -7.92,-22.18 c 2.53,0.621 6.34,1.269 10.14,1.269 16.8,0 27.57,-9.199 27.26,-23.769 -0.96,-19.649 -15.21,-29.481 -35.5,-29.481 -12.68,0 -21.55,3.793 -26.62,6.981 -2.22,1.25 -2.86,2.203 -2.86,4.742 v 4.117 c 0,1.594 0.64,2.543 2.23,1.594 5.38,-4.133 12.35,-8.562 25.98,-8.562 15.53,0 24.72,7.929 24.72,20.921 0,10.45 -7.92,15.528 -21.55,15.528 -4.44,0 -8.55,-0.321 -12.04,-1.59 -3.17,-0.641 -4.12,0.961 -2.85,4.133 l 9.82,26.297 c -42.78,0.632 -67.5,18.382 -82.72,55.453 -1.27,3.168 -0.63,4.437 2.54,5.707 l 6.02,2.222 c 2.85,0.957 3.8,0.629 5.07,-2.543 13.95,-32.007 36.45,-46.886 71.63,-46.886 45.95,0 69.08,16.457 69.08,50.058 0,37.399 -32.95,42.149 -67.18,46.27 -39.62,4.762 -82.72,11.422 -82.72,60.543 0,38.652 29.16,63.066 79.55,63.066 42.47,0 66.56,-15.527 83.04,-49.121 1.58,-2.851 0.63,-4.453 -2.23,-5.39 l -6.02,-2.852 c -2.53,-0.957 -3.8,-0.957 -5.38,1.894 -13.95,28.204 -33.91,41.524 -69.41,41.524 -40.89,0 -64.66,-17.754 -64.66,-48.184 0,-37.382 35.19,-43.422 71,-47.211 38.35,-4.449 78.91,-11.089 78.91,-59.898" style="fill:#4f4c4c;fill-opacity:1;fill-rule:nonzero;stroke:none" id="path86"/><path d="m 2890.97,697.895 v -5.704 c 0,-2.851 -0.95,-3.808 -4.12,-3.808 H 2768 v -90.645 h 105.22 c 2.86,0 3.81,-0.957 3.81,-3.808 v -5.7 c 0,-3.171 -0.95,-4.121 -3.81,-4.121 H 2768 v -93.5 h 123.29 c 2.85,0 4.12,-0.937 4.12,-3.789 v -5.699 c 0,-3.191 -1.27,-4.121 -4.12,-4.121 h -133.74 c -3.17,0 -4.13,0.93 -4.13,4.121 v 216.774 c 0,3.164 0.96,4.121 4.13,4.121 h 129.3 c 3.17,0 4.12,-0.957 4.12,-4.121" style="fill:#4f4c4c;fill-opacity:1;fill-rule:nonzero;stroke:none" id="path88"/><path d="M 3097.25,697.895 V 481.121 c 0,-3.191 -0.95,-4.121 -4.12,-4.121 h -6.65 c -2.86,0 -3.81,0.93 -3.81,4.121 V 584.109 H 2948.61 V 481.121 c 0,-3.191 -0.95,-4.121 -3.8,-4.121 h -6.65 c -3.17,0 -4.13,0.93 -4.13,4.121 v 216.774 c 0,3.164 0.96,4.121 4.13,4.121 h 6.65 c 2.85,0 3.8,-0.957 3.8,-4.121 V 597.738 h 134.06 v 100.157 c 0,3.164 0.95,4.121 3.81,4.121 h 6.65 c 3.17,0 4.12,-0.957 4.12,-4.121" style="fill:#4f4c4c;fill-opacity:1;fill-rule:nonzero;stroke:none" id="path90"/><path d="m 3153.3,702.016 h 6.66 c 2.85,0 3.8,-0.957 3.8,-4.121 V 481.121 c 0,-3.191 -0.95,-4.121 -3.8,-4.121 h -6.66 c -3.17,0 -4.12,0.93 -4.12,4.121 v 216.774 c 0,3.164 0.95,4.121 4.12,4.121 z m 11.41,36.445 v -1.582 c 0,-5.723 -1.9,-7.305 -7.6,-7.305 h -1.27 c -6.02,0 -7.61,1.27 -7.61,7.305 v 1.582 c 0,6.016 1.59,7.598 7.61,7.598 h 1.27 c 5.7,0 7.6,-1.582 7.6,-7.598" style="fill:#4f4c4c;fill-opacity:1;fill-rule:nonzero;stroke:none" id="path92"/><path d="M 3309.22,688.383 H 3230.3 V 589.5 h 78.92 c 31.68,0 50.7,17.438 50.7,49.117 0,31.699 -18.38,49.766 -50.7,49.766 z m 65.91,-49.766 c 0,-36.445 -21.54,-58.297 -55.77,-61.148 12.04,-5.078 19.01,-13.008 25.98,-26 l 35.5,-70.348 c 1.58,-2.23 0.95,-4.121 -2.22,-4.121 h -6.02 c -5.07,0 -6.66,0.621 -7.93,3.469 l -32.95,65.301 c -10.46,20.91 -22.5,30.089 -49.13,30.089 h -52.29 v -94.738 c 0,-3.191 -0.95,-4.121 -3.8,-4.121 h -6.66 c -3.17,0 -4.12,0.93 -4.12,4.121 v 216.774 c 0,3.164 0.95,4.121 4.12,4.121 h 90.96 c 39.93,0 64.33,-23.145 64.33,-63.399" style="fill:#4f4c4c;fill-opacity:1;fill-rule:nonzero;stroke:none" id="path94"/><path d="m 3626.72,697.895 v -5.704 c 0,-2.851 -0.95,-3.808 -4.12,-3.808 h -68.77 V 481.121 c 0,-3.191 -0.95,-4.121 -3.8,-4.121 h -6.66 c -3.17,0 -4.12,0.93 -4.12,4.121 v 207.262 h -68.77 c -3.17,0 -4.12,0.957 -4.12,3.808 v 5.704 c 0,3.164 0.95,4.121 4.12,4.121 h 152.12 c 3.17,0 4.12,-0.957 4.12,-4.121" style="fill:#4f4c4c;fill-opacity:1;fill-rule:nonzero;stroke:none" id="path96"/><path d="m 3794.35,697.895 v -5.704 c 0,-2.851 -0.95,-3.808 -4.12,-3.808 h -118.85 v -90.645 h 105.22 c 2.85,0 3.8,-0.957 3.8,-3.808 v -5.7 c 0,-3.171 -0.95,-4.121 -3.8,-4.121 h -105.22 v -93.5 h 123.28 c 2.86,0 4.12,-0.937 4.12,-3.789 v -5.699 c 0,-3.191 -1.26,-4.121 -4.12,-4.121 h -133.74 c -3.17,0 -4.12,0.93 -4.12,4.121 v 216.774 c 0,3.164 0.95,4.121 4.12,4.121 h 129.31 c 3.17,0 4.12,-0.957 4.12,-4.121" style="fill:#4f4c4c;fill-opacity:1;fill-rule:nonzero;stroke:none" id="path98"/><path d="m 3914.43,706.449 c 49.12,0 72.57,-19.023 83.34,-55.156 0.96,-3.164 0,-4.121 -2.85,-5.371 l -5.7,-1.914 c -3.17,-0.625 -4.44,-0.313 -5.39,2.539 -9.51,31.367 -28.2,46.269 -69.4,46.269 -46.91,0 -70.68,-24.082 -70.68,-64.023 v -78.281 c 0,-39.614 24.72,-64.332 70.68,-64.332 42.46,0 60.53,16.48 70.03,47.871 1.27,2.847 2.54,3.469 5.4,2.519 l 6.02,-2.211 c 2.85,-0.961 3.48,-2.23 2.53,-5.078 -10.78,-36.133 -33.59,-56.722 -83.98,-56.722 -55.15,0 -85.26,29.793 -85.26,78.293 v 77.628 c 0,48.165 29.16,77.969 85.26,77.969" style="fill:#4f4c4c;fill-opacity:1;fill-rule:nonzero;stroke:none" id="path100"/><path d="M 4199.93,697.895 V 481.121 c 0,-3.191 -0.95,-4.121 -4.12,-4.121 h -6.65 c -2.85,0 -3.81,0.93 -3.81,4.121 V 584.109 H 4051.3 V 481.121 c 0,-3.191 -0.96,-4.121 -3.81,-4.121 h -6.65 c -3.17,0 -4.12,0.93 -4.12,4.121 v 216.774 c 0,3.164 0.95,4.121 4.12,4.121 h 6.65 c 2.85,0 3.81,-0.957 3.81,-4.121 V 597.738 h 134.05 v 100.157 c 0,3.164 0.96,4.121 3.81,4.121 h 6.65 c 3.17,0 4.12,-0.957 4.12,-4.121" style="fill:#4f4c4c;fill-opacity:1;fill-rule:nonzero;stroke:none" id="path102"/><path d="M 4417.93,697.895 V 481.121 c 0,-3.191 -0.95,-4.121 -3.8,-4.121 h -6.66 c -2.21,0 -3.17,0.309 -4.43,2.539 l -112.51,160.348 c -10.46,14.902 -19.02,32.011 -25.67,41.211 h -0.63 c 0,-12.051 1.89,-32.325 1.89,-52.305 V 481.121 c 0,-3.191 -0.95,-4.121 -3.8,-4.121 h -6.34 c -3.17,0 -4.12,0.93 -4.12,4.121 v 216.774 c 0,3.164 0.95,4.121 4.12,4.121 h 6.34 c 2.54,0 3.8,-1.27 4.44,-2.227 l 109.34,-156.25 c 11.72,-16.801 21.55,-34.527 29.16,-45.309 h 0.63 c 0,13.942 -2.22,35.168 -2.22,57.051 v 142.926 c 0,2.852 0.95,3.809 4.12,3.809 h 6.34 c 2.85,0 3.8,-0.957 3.8,-4.121" style="fill:#4f4c4c;fill-opacity:1;fill-rule:nonzero;stroke:none" id="path104"/><path d="m 4473.98,702.016 h 6.66 c 2.85,0 3.8,-0.957 3.8,-4.121 V 481.121 c 0,-3.191 -0.95,-4.121 -3.8,-4.121 h -6.66 c -3.17,0 -4.12,0.93 -4.12,4.121 v 216.774 c 0,3.164 0.95,4.121 4.12,4.121" style="fill:#4f4c4c;fill-opacity:1;fill-rule:nonzero;stroke:none" id="path106"/><path d="m 4615,706.449 c 49.12,0 72.57,-19.023 83.35,-55.156 0.95,-3.164 0,-4.121 -2.86,-5.371 l -5.7,-1.914 c -3.17,-0.625 -4.44,-0.313 -5.38,2.539 -9.52,31.367 -28.21,46.269 -69.41,46.269 -46.91,0 -70.68,-24.082 -70.68,-64.023 v -78.281 c 0,-39.614 24.72,-64.332 70.68,-64.332 42.47,0 60.53,16.48 70.04,47.871 1.27,2.847 2.53,3.469 5.39,2.519 l 6.02,-2.211 c 2.85,-0.961 3.48,-2.23 2.53,-5.078 -10.78,-36.133 -33.59,-56.722 -83.98,-56.722 -55.15,0 -85.26,29.793 -85.26,78.293 v 77.628 c 0,48.165 29.16,77.969 85.26,77.969" style="fill:#4f4c4c;fill-opacity:1;fill-rule:nonzero;stroke:none" id="path108"/><path d="m 4809.23,689.008 h -0.94 c 0,-1.582 -0.32,-7.285 -2.54,-13.613 l -45,-112.516 h 96.66 l -45.01,112.516 c -2.21,6.328 -2.85,12.031 -3.17,13.613 z M 4902.41,477 h -5.7 c -4.76,0 -6.34,0.621 -6.97,3.469 l -28.21,70.043 h -105.22 l -27.89,-70.043 c -0.95,-2.848 -2.53,-3.469 -7.29,-3.469 h -5.39 c -3.17,0 -3.8,1.578 -2.85,3.789 l 87.79,219 c 1.27,2.852 2.53,3.809 5.39,3.809 h 6.33 c 2.86,0 4.44,-0.957 5.39,-3.809 l 87.79,-219 c 0.95,-2.211 0.32,-3.789 -3.17,-3.789" style="fill:#4f4c4c;fill-opacity:1;fill-rule:nonzero;stroke:none" id="path110"/><path d="M 4949.91,697.895 V 490.609 h 115.36 c 2.85,0 3.8,-0.937 3.8,-3.789 v -5.699 c 0,-3.191 -0.95,-4.121 -3.8,-4.121 h -125.82 c -3.17,0 -4.12,0.93 -4.12,4.121 v 216.774 c 0,3.164 0.95,4.121 4.12,4.121 h 6.66 c 2.85,0 3.8,-0.957 3.8,-4.121" style="fill:#4f4c4c;fill-opacity:1;fill-rule:nonzero;stroke:none" id="path112"/><path d="m 5251.89,485.859 c 46.27,0 68.77,26.313 68.77,67.192 v 144.844 c 0,3.164 0.95,4.121 3.8,4.121 h 6.98 c 2.85,0 3.8,-0.957 3.8,-4.121 V 553.051 c 0,-49.121 -27.57,-80.821 -83.35,-80.821 -56.1,0 -83.67,31.7 -83.67,80.821 v 144.844 c 0,3.164 0.95,4.121 4.12,4.121 h 6.66 c 2.85,0 3.8,-0.957 3.8,-4.121 V 553.051 c 0,-40.879 22.5,-67.192 69.09,-67.192" style="fill:#4f4c4c;fill-opacity:1;fill-rule:nonzero;stroke:none" id="path114"/><path d="M 5551.33,697.895 V 481.121 c 0,-3.191 -0.95,-4.121 -3.8,-4.121 h -6.65 c -2.22,0 -3.17,0.309 -4.44,2.539 l -112.51,160.348 c -10.46,14.902 -19.01,32.011 -25.67,41.211 h -0.63 c 0,-12.051 1.9,-32.325 1.9,-52.305 V 481.121 c 0,-3.191 -0.95,-4.121 -3.81,-4.121 h -6.33 c -3.17,0 -4.12,0.93 -4.12,4.121 v 216.774 c 0,3.164 0.95,4.121 4.12,4.121 h 6.33 c 2.54,0 3.81,-1.27 4.44,-2.227 l 109.34,-156.25 c 11.73,-16.801 21.55,-34.527 29.16,-45.309 h 0.63 c 0,13.942 -2.22,35.168 -2.22,57.051 v 142.926 c 0,2.852 0.95,3.809 4.12,3.809 h 6.34 c 2.85,0 3.8,-0.957 3.8,-4.121" style="fill:#4f4c4c;fill-opacity:1;fill-rule:nonzero;stroke:none" id="path116"/><path d="m 5607.38,702.016 h 6.66 c 2.85,0 3.8,-0.957 3.8,-4.121 V 481.121 c 0,-3.191 -0.95,-4.121 -3.8,-4.121 h -6.66 c -3.16,0 -4.12,0.93 -4.12,4.121 v 216.774 c 0,3.164 0.96,4.121 4.12,4.121" style="fill:#4f4c4c;fill-opacity:1;fill-rule:nonzero;stroke:none" id="path118"/><path d="M 5833.97,698.207 5749.35,480.789 C 5748.4,477.93 5746.82,477 5743.96,477 h -6.02 c -3.17,0 -4.44,0.93 -5.38,3.469 l -84.62,217.738 c -0.96,2.207 -0.32,3.809 2.53,3.809 h 6.02 c 4.76,0 6.02,-0.645 6.97,-3.496 l 70.36,-182.231 c 2.86,-7.93 5.39,-17.109 6.97,-21.23 h 0.95 c 1.59,4.121 3.81,12.992 6.66,21.23 l 70.04,182.231 c 0.95,2.851 2.54,3.496 6.97,3.496 h 6.02 c 3.18,0 3.49,-1.602 2.54,-3.809" style="fill:#4f4c4c;fill-opacity:1;fill-rule:nonzero;stroke:none" id="path120"/><path d="m 6001.59,697.895 v -5.704 c 0,-2.851 -0.95,-3.808 -4.12,-3.808 h -118.85 v -90.645 h 105.22 c 2.85,0 3.8,-0.957 3.8,-3.808 v -5.7 c 0,-3.171 -0.95,-4.121 -3.8,-4.121 h -105.22 v -93.5 h 123.29 c 2.85,0 4.11,-0.937 4.11,-3.789 v -5.699 c 0,-3.191 -1.26,-4.121 -4.11,-4.121 h -133.75 c -3.17,0 -4.12,0.93 -4.12,4.121 v 216.774 c 0,3.164 0.95,4.121 4.12,4.121 h 129.31 c 3.17,0 4.12,-0.957 4.12,-4.121" style="fill:#4f4c4c;fill-opacity:1;fill-rule:nonzero;stroke:none" id="path122"/><path d="m 6138.15,688.383 h -78.92 V 589.5 h 78.92 c 31.69,0 50.7,17.438 50.7,49.117 0,31.699 -18.38,49.766 -50.7,49.766 z m 65.91,-49.766 c 0,-36.445 -21.54,-58.297 -55.77,-61.148 12.04,-5.078 19.01,-13.008 25.98,-26 l 35.5,-70.348 c 1.58,-2.23 0.95,-4.121 -2.22,-4.121 h -6.02 c -5.07,0 -6.66,0.621 -7.92,3.469 l -32.96,65.301 c -10.46,20.91 -22.5,30.089 -49.12,30.089 h -52.3 v -94.738 c 0,-3.191 -0.95,-4.121 -3.8,-4.121 h -6.66 c -3.17,0 -4.12,0.93 -4.12,4.121 v 216.774 c 0,3.164 0.95,4.121 4.12,4.121 h 90.96 c 39.93,0 64.33,-23.145 64.33,-63.399" style="fill:#4f4c4c;fill-opacity:1;fill-rule:nonzero;stroke:none" id="path124"/><path d="m 6318.75,706.449 c 42.47,0 66.56,-15.527 83.04,-49.121 1.58,-2.851 0.63,-4.453 -1.91,-5.39 l -6.33,-2.852 c -2.54,-0.957 -3.49,-0.957 -5.07,1.894 -14.26,28.204 -34.23,41.524 -69.73,41.524 -40.88,0 -64.65,-17.754 -64.65,-48.184 0,-37.382 35.18,-43.422 70.99,-47.211 38.67,-4.449 78.92,-11.089 78.92,-59.898 0,-41.211 -28.53,-64.652 -83.67,-64.652 -44.37,0 -70.05,17.742 -85.26,55.453 -1.26,3.168 -0.95,4.437 2.22,5.707 l 6.03,2.222 c 2.85,0.957 3.8,0.629 5.38,-2.543 13.63,-32.007 36.13,-46.886 71.63,-46.886 45.63,0 69.09,16.457 69.09,50.058 0,37.399 -32.96,42.149 -67.51,46.27 -39.61,4.762 -82.71,11.422 -82.71,60.543 0,38.652 29.47,63.066 79.54,63.066" style="fill:#4f4c4c;fill-opacity:1;fill-rule:nonzero;stroke:none" id="path126"/><path d="m 6448.65,702.016 h 6.66 c 2.85,0 3.8,-0.957 3.8,-4.121 V 481.121 c 0,-3.191 -0.95,-4.121 -3.8,-4.121 h -6.66 c -3.16,0 -4.12,0.93 -4.12,4.121 v 216.774 c 0,3.164 0.96,4.121 4.12,4.121" style="fill:#4f4c4c;fill-opacity:1;fill-rule:nonzero;stroke:none" id="path128"/><path d="m 6649.57,697.895 v -5.704 c 0,-2.851 -0.95,-3.808 -4.12,-3.808 h -68.77 V 481.121 c 0,-3.191 -0.96,-4.121 -3.81,-4.121 h -6.65 c -3.17,0 -4.12,0.93 -4.12,4.121 v 207.262 h -68.77 c -3.18,0 -4.12,0.957 -4.12,3.808 v 5.704 c 0,3.164 0.94,4.121 4.12,4.121 h 152.12 c 3.17,0 4.12,-0.957 4.12,-4.121" style="fill:#4f4c4c;fill-opacity:1;fill-rule:nonzero;stroke:none" id="path130"/><path d="m 6844.76,697.895 -85.89,-128.356 v -88.418 c 0,-3.191 -0.95,-4.121 -3.8,-4.121 h -6.66 c -3.16,0 -4.12,0.93 -4.12,4.121 v 88.731 l -85.56,128.043 c -1.27,2.207 -0.64,4.121 2.21,4.121 h 8.56 c 4.44,0 5.71,-0.332 7.29,-3.496 l 75.11,-113.77 75.11,113.77 c 1.9,3.164 3.17,3.496 7.61,3.496 h 7.92 c 2.85,0 3.49,-1.914 2.22,-4.121" style="fill:#4f4c4c;fill-opacity:1;fill-rule:nonzero;stroke:none" id="path132"/></g></g></svg>